<?xml version="1.0" encoding="UTF-8"?>
<svg id="katman_2" xmlns="http://www.w3.org/2000/svg" version="1.1" viewBox="0 0 2979.3 351.4">
  <!-- Generator: Adobe Illustrator 30.4.0, SVG Export Plug-In . SVG Version: 2.1.4 Build 226)  -->
  <defs>
    <style>
      .st0 {
        isolation: isolate;
      }

      .st1 {
        fill: #8c8c8c;
      }
    </style>
  </defs>
  <g id="katman_1">
    <g class="st0">
      <g class="st0">
        <path class="st1" d="M140.6,282.2l-48.4-88.2h-17v88.2H21V51.8h82.8c44.1,0,86.2,18.7,86.2,69.1s-28.1,60.8-45.1,66.1l58.4,95.2h-62.8ZM96.2,93.5h-21.4v59.1h21.4c20,0,39.4-6,39.4-29.7s-19.4-29.4-39.4-29.4Z"/>
        <path class="st1" d="M374.4,282.2l-101.2-156.3s1,27.7,1,52.1v104.2h-52.8V51.8h57.8l98.9,155s-1-26.1-1-50.4V51.8h52.8v230.5h-55.4Z"/>
        <path class="st1" d="M581.2,286.2c-67.8,0-120.9-44.8-120.9-118.9s53.8-118.9,120.9-118.9,73.1,19.7,79.2,26.1l-16.7,44.8c-4.3-5.7-29.1-24-59.5-24s-69.1,26.1-69.1,71.1,31.4,70.8,69.1,70.8,49.4-11.4,62.1-24.4l18,42.1c-11.7,12-36.1,31.4-83.2,31.4Z"/>
        <path class="st1" d="M789.6,286.2c-68.5,0-122.2-44.4-122.2-118.9s53.8-119.2,122.2-119.2,122.2,44.8,122.2,119.2-53.8,118.9-122.2,118.9ZM789.6,94.2c-38.4,0-67.5,27.7-67.5,71.8s29.1,72.1,67.5,72.1,67.5-28.1,67.5-72.1-29.1-71.8-67.5-71.8Z"/>
        <path class="st1" d="M1095.2,282.2l-101.2-156.3s1,27.7,1,52.1v104.2h-52.8V51.8h57.8l98.9,155s-1-26.1-1-50.4V51.8h52.8v230.5h-55.4Z"/>
        <path class="st1" d="M1258.8,286.2c-33.4,0-63.1-17.4-81.8-34.7l26.7-39.4c16.7,17.4,42.4,29.1,60.1,29.1s30.7-8.3,30.7-23.7-17-21.7-27.1-25.4c-10-3.7-27.4-9.7-35.1-13-5.7-2.7-17.4-7-27.4-16.7-10-9.4-18-22.7-18-44.4s10.7-39.4,24-50.4c13-11,34.1-18.4,60.8-18.4s57.4,12.7,73.1,28.4l-23,37.7c-13.4-13.4-34.1-23.4-51.4-23.4s-30.1,6.7-30.1,20.7,13,19.4,23.4,23.4c10,4,27.1,10,34.4,13,29.4,10.7,50.1,29.7,50.1,63.1,0,49.8-44.8,74.1-89.5,74.1Z"/>
        <path class="st1" d="M1377.1,282.2V51.8h149.3v43.1h-95.5v47.1h90.2v43.1h-90.2v53.4h98.5v43.8h-152.3Z"/>
        <path class="st1" d="M1645.3,197.1h-28.4v85.2h-54.1V51.8h82.5c47.1,0,84.2,21,84.2,72.5s-37.1,72.8-84.2,72.8ZM1637.6,93.5h-21v61.8h21c21,0,37.1-7.3,37.1-31.1s-16.4-30.7-37.1-30.7Z"/>
        <path class="st1" d="M1849.7,94.5v187.7h-54.1V94.5h-59.5v-42.8h173v42.8h-59.5Z"/>
      </g>
    </g>
  </g>
</svg>